<svg xmlns="http://www.w3.org/2000/svg" fill="#000" viewBox="0 0 744 145">
  <path fill-rule="evenodd"
    d="M707.453 31.0734c5.152 0 9.901.6112 14.247 1.8336 4.345 1.2224 8.131 2.994 11.355 5.3148 3.224 2.3208 5.721 5.1643 7.491 8.5304 1.713 3.2574 2.597 6.9629 2.652 11.1163l.003.4169v56.8686h-12.772c-6.146 0-11.304-6.367-11.409-12.557l-.001-.198h-.631c-1.437 2.763-3.268 5.102-5.494 7.015-2.225 1.914-4.836 3.349-7.833 4.305-2.996.957-6.37 1.435-10.12 1.435-5.151 0-9.716-.877-13.694-2.631-3.978-1.754-7.115-4.411-9.41-7.972-2.296-3.561-3.443-8.0342-3.443-13.4199 0-4.5353.788-8.362 2.365-11.48 1.577-3.1181 3.75-5.6515 6.519-7.6003 2.769-1.9488 5.958-3.4281 9.568-4.4379 3.397-.9504 7.012-1.6105 10.844-1.9803l1.658-.1542 1.068-.1047 1.535-.159 1.457-.1613 1.377-.1637.874-.1105.839-.1114.804-.1125 1.14-.1708.717-.1151.344-.058c2.804-.4783 4.846-1.1692 6.125-2.0728.363-.2564.675-.5436.935-.8614.022-.0199.04-.0397.055-.06l.087-.124c.06-.0828.117-.1676.171-.2542l.079-.1315c.81-1.3235 1.56-3.2426 1.56-4.804 0-2.6998-.966-4.7601-2.899-6.181-1.933-1.421-4.39-2.1314-7.369-2.1314-2.802 0-5.329.5684-7.582 1.7051-2.252 1.1367-4.052 2.7086-5.4 4.7157-.903 1.3452-1.504 2.838-1.802 4.4784l-22.333.0007c.701-4.9605 2.775-10.8796 5.701-14.7949 2.926-3.9152 6.957-6.9979 12.091-9.2478 5.135-2.25 11.312-3.3749 18.531-3.3749Zm10.029 47.5891-.228.1162c-.697.3453-1.517.6618-2.458.9495-1.047.3197-2.191.6217-3.432.9058-1.242.2842-2.518.5329-3.831.746l-.781.1258-1.524.2387-1.472.2217c-2.448.3907-4.532.9946-6.252 1.8116-1.72.8171-3.032 1.8739-3.937 3.1705-.904 1.2966-1.357 2.833-1.357 4.6091 0 2.6998.967 4.7601 2.9 6.181 1.933 1.421 4.389 2.1314 7.369 2.1314 2.802 0 5.329-.5683 7.581-1.7051 2.253-1.1367 4.053-2.7086 5.401-4.7157 1.298-1.9327 1.971-4.1701 2.019-6.7122l.002-.2947v-7.7796ZM608.972 0l-.045 48.5449h.898c1.831-5.0284 4.834-8.9591 9.007-11.7921 4.174-2.8329 9.29-4.2494 15.348-4.2494 5.706 0 10.672 1.266 14.899 3.7979 4.226 2.532 7.511 6.0997 9.853 10.7032 2.282 4.4855 3.436 9.7106 3.461 15.6753v26.4913c0 14.2069-11.337 25.7499-25.408 25.9799l-.427.003V68.2515c.035-4.5327-1.092-8.0739-3.382-10.6235-2.289-2.5496-5.512-3.8245-9.668-3.8245-2.712 0-5.098.5932-7.159 1.7795-2.06 1.1863-3.663 2.8772-4.807 5.0727-1.101 2.1111-1.689 4.6478-1.764 7.6101l-.006.3575v20.5486c0 14.2061-11.337 25.7491-25.408 25.9791l-.427.003.046-90.0218c0-13.7413 10.966-24.906896 24.576-25.128833L608.972 0Zm-68.656 31.0734c7.482 0 14.007 1.3615 19.574 4.0846 5.568 2.7232 9.924 6.5691 13.068 11.538 3.074 4.8584 4.729 10.5367 4.965 17.0349l.014.4443h-24.08c-.492-4.1731-1.888-7.4444-4.189-9.8138-2.301-2.3695-5.295-3.5542-8.983-3.5542-2.986 0-5.603.8399-7.851 2.5197-2.248 1.6799-3.996 4.1555-5.243 7.4267-1.247 3.2713-1.871 7.3118-1.871 12.1215 0 4.8096.624 8.8678 1.871 12.1745 1.247 3.3066 2.995 5.7999 5.243 7.4797 2.248 1.6799 4.865 2.5198 7.851 2.5198 2.388 0 4.505-.5128 6.349-1.5384 1.844-1.0256 3.363-2.5375 4.558-4.5356 1.144-1.9149 1.885-4.2276 2.223-6.9383l.042-.3558h24.08c-.246 6.7194-1.906 12.59-4.979 17.6119-3.074 5.0221-7.377 8.9211-12.91 11.6971-5.532 2.776-12.092 4.164-19.68 4.164-8.535 0-15.851-1.768-21.945-5.305-6.095-3.536-10.775-8.461-14.042-14.7734-3.267-6.3127-4.901-13.6245-4.901-21.9353 0-8.3462 1.643-15.6756 4.927-21.9883 3.284-6.3127 7.974-11.2373 14.068-14.7738 6.095-3.5366 13.375-5.3048 21.841-5.3048Zm-75.053 0c5.718 0 10.685 1.3058 14.903 3.9176 4.217 2.6118 7.499 6.2502 9.846 10.9154 2.287 4.5455 3.443 9.8349 3.469 15.8682v26.9469c0 14.4525-11.36 26.1955-25.46 26.4295l-.428.003V67.44c.035-4.6112-1.103-8.2136-3.415-10.8074-2.312-2.5937-5.514-3.8906-9.608-3.8906-2.718 0-5.109.6034-7.174 1.8102-2.064 1.2069-3.652 2.927-4.764 5.1605-1.069 2.1476-1.64 4.7282-1.714 7.7418l-.007.3637v20.9041c0 14.4517-11.359 26.1947-25.458 26.4287l-.429.003V57.2887c0-13.7426 10.802-24.9093 24.21-25.1312l.407-.0034v15.2383h.9c1.8-5.0794 4.87-9.0691 9.211-11.9691 4.341-2.9 9.512-4.3499 15.511-4.3499Zm-56.239 0v57.3047c0 14.6399-11.208 26.5359-25.121 26.7729l-.423.003V31.0734h25.544ZM396.252 0c7.054 0 12.772 5.72848 12.772 12.7949 0 7.0664-5.718 12.7949-12.772 12.7949-7.053 0-12.772-5.7285-12.772-12.7949C383.48 5.72848 389.199 0 396.252 0ZM345.01 31.0734c5.668 0 10.974 1.4883 15.916 4.465s8.937 7.5657 11.984 13.7671c3.047 6.2014 4.57 14.1038 4.57 23.7071 0 9.249-1.461 16.9919-4.384 23.2287-2.923 6.2367-6.856 10.9147-11.798 14.0327-4.942 3.119-10.425 4.678-16.448 4.678-4.109 0-7.67-.673-10.681-2.02-3.012-1.347-5.536-3.118-7.573-5.315-1.935-2.088-3.447-4.319-4.535-6.694l-.168-.376h-.532v17.852c0 14.216-11.403 25.768-25.557 25.997l-.429.004V57.8713c0-14.0708 11.109-26.5672 25.118-26.7945l.425-.0034.178 15.0428h.797c1.063-2.4805 2.577-4.8725 4.543-7.1759 1.967-2.3034 4.482-4.1904 7.547-5.661 3.064-1.4706 6.74-2.2059 11.027-2.2059Zm-11.559 20.9919c-3.193 0-5.906.8675-8.141 2.6024-2.234 1.7348-3.946 4.2133-5.134 7.4352-1.188 3.2219-1.782 7.0635-1.782 11.5246 0 4.3903.594 8.2141 1.782 11.4715 1.188 3.2573 2.909 5.78 5.161 7.568 2.252 1.788 4.957 2.682 8.114 2.682 3.192 0 5.905-.894 8.14-2.682 2.234-1.788 3.928-4.3107 5.081-7.568 1.153-3.2574 1.729-7.0812 1.729-11.4715 0-4.3903-.576-8.1965-1.729-11.4184-1.153-3.2219-2.838-5.718-5.055-7.4883-2.216-1.7703-4.939-2.6555-8.166-2.6555ZM260.773 30.356c10.322 0 19.358 5.5098 24.33 13.7505.594.8427 1.133 1.7246 1.617 2.6457 1.713 3.2574 2.597 6.9629 2.652 11.1163l.003.4169v56.8686h-12.772c-6.146 0-11.304-6.367-11.409-12.557l-.002-.198h-.63c-1.437 2.763-3.269 5.102-5.494 7.015-2.225 1.914-4.836 3.349-7.833 4.305-2.996.957-6.37 1.435-10.12 1.435-5.152 0-9.716-.877-13.694-2.631-3.978-1.754-7.115-4.411-9.41-7.972-2.296-3.561-3.444-8.0342-3.444-13.4199 0-4.5353.789-8.362 2.366-11.4801 1.577-3.118 3.75-5.6514 6.519-7.6002 2.768-1.9488 5.958-3.4281 9.568-4.4379 3.397-.9504 7.012-1.6105 10.844-1.9803l1.658-.1542 1.068-.1047 1.535-.159 1.456-.1613 1.378-.1637.874-.1105.839-.1114.804-.1125.769-.1136.734-.1146c.238-.0384.471-.077.698-.1157 2.804-.4783 4.845-1.1692 6.125-2.0728.38-.2684.703-.5704.97-.906l.02-.0219.04-.0545c.123-.1629.234-.3336.332-.5119l.094-.1809c.707-1.303 1.225-3.0819 1.225-4.5599 0-2.6998-.967-4.7601-2.9-6.181-1.933-1.421-4.389-2.1314-7.369-2.1314-2.802 0-5.329.5684-7.581 1.7051-2.252 1.1367-4.053 2.7086-5.4 4.7157l-.151.2304.033-15.9148c-.021-.0113-.029-.0239-.023-.0381l.024-.0262-.001-.0414c.888-.8552 1.809-1.6244 2.765-2.3076l.412-.2875c4.648-3.3182 10.336-5.2707 16.481-5.2707Zm1.71 48.3065-.228.1162c-.698.3452-1.517.6618-2.459.9495-1.046.3197-2.19.6217-3.432.9058-1.241.2842-2.518.5329-3.83.746l-.781.1258-1.524.2387-1.473.2217c-2.447.3907-4.531.9946-6.251 1.8116-1.721.8171-3.033 1.8739-3.937 3.1705-.905 1.2966-1.357 2.833-1.357 4.6091 0 2.6998.966 4.7601 2.9 6.181 1.933 1.421 4.389 2.1314 7.368 2.1314 2.802 0 5.33-.5683 7.582-1.7051 2.252-1.1367 4.052-2.7086 5.4-4.7157 1.298-1.9327 1.971-4.1701 2.019-6.7122l.003-.2947v-7.7796Z"
    clip-rule="evenodd" />
  <path fill-rule="evenodd"
    d="m206.845 32.7369.007.9178c.004.8839.002 1.756-.007 2.6163v13.882c.007-8.9989 8.838-16.4102 17.83-16.4102 1.919 0 3.761.3323 5.471.9425 1.91.6816 3.655 1.7098 5.16 3.0089l.26.227.001 15.8115c-.012-.0513-.017-.077-.017-.077-3.01-2.228-6.734-2.3616-10.765-2.3616-9.905 0-17.688 7.9544-17.843 17.8276l-.013 1.3745c-.041.3261-.068.6572-.079.9934 0 0-.006.3008-.005.6017.027 5.124.056 9.572.088 13.344l.012 4.1042-.001 4.4013-.008 2.3069c-.001.1846-.003.367-.004.5472l.057 5.6041-.001.198c-.103 6.114-5.138 12.402-11.184 12.554l-.225.003h-12.772V58.2854l.003-.4168c.055-4.1535.939-7.8589 2.652-11.1164 1.029-1.9577 2.305-3.7387 3.826-5.3428 4.314-5.172 10.479-8.5558 17.557-8.6725Zm-65.785-1.6635c5.151 0 9.9.6112 14.246 1.8336s8.131 2.994 11.355 5.3148c3.225 2.3208 5.722 5.1643 7.491 8.5304 1.713 3.2574 2.597 6.9629 2.653 11.1163l.002.4169v56.8686h-12.772c-6.146 0-11.304-6.367-11.408-12.557l-.002-.198h-.631c-1.437 2.763-3.268 5.102-5.493 7.015-2.226 1.914-4.837 3.349-7.833 4.305-2.997.957-6.37 1.435-10.12 1.435-5.152 0-9.717-.877-13.695-2.631-3.977-1.754-7.114-4.411-9.41-7.972-2.295-3.561-3.443-8.0342-3.443-13.4199 0-4.5353.789-8.362 2.366-11.48 1.577-3.1181 3.75-5.6515 6.518-7.6003 2.769-1.9488 5.958-3.4281 9.568-4.4379 3.398-.9504 7.012-1.6105 10.844-1.9803l1.659-.1542 1.067-.1047 1.536-.159 1.456-.1613 1.377-.1637.875-.1105.839-.1114.804-.1125 1.14-.1708.716-.1151.345-.058c2.804-.4783 4.845-1.1692 6.124-2.0728.363-.2564.675-.5436.935-.8614.022-.0199.041-.0397.055-.06l.087-.124c.061-.0828.118-.1676.172-.2542l.078-.1315c.81-1.3235 1.561-3.2426 1.561-4.804 0-2.6998-.967-4.7601-2.9-6.181-1.933-1.421-4.389-2.1314-7.369-2.1314-2.802 0-5.329.5684-7.581 1.7051-2.253 1.1367-4.053 2.7086-5.4 4.7157-.904 1.3452-1.504 2.838-1.802 4.4784l-22.333.0007c.701-4.9605 2.774-10.8796 5.701-14.7949 2.926-3.9152 6.956-6.9979 12.091-9.2478 5.134-2.25 11.311-3.3749 18.531-3.3749Zm9.029 47.5891-.228.1162c-.698.3453-1.517.6618-2.459.9495-1.046.3197-2.19.6217-3.432.9058-1.241.2842-2.518.5329-3.83.746l-.781.1258-1.524.2387-1.473.2217c-2.447.3907-4.531.9946-6.251 1.8116-1.721.8171-3.033 1.8739-3.937 3.1705-.905 1.2966-1.357 2.833-1.357 4.6091 0 2.6998.966 4.7601 2.899 6.181 1.934 1.421 4.39 2.1314 7.369 2.1314 2.802 0 5.33-.5683 7.582-1.7051 2.252-1.1367 4.052-2.7086 5.4-4.7157 1.298-1.9327 1.971-4.1701 2.019-6.7122l.003-.2947v-7.7796ZM46.2107 104.194c-6.0259-3.605-9.462-9.1489-10.2107-16.001V44.8944c.7496 6.8572 4.1893 12.4035 10.2233 16.0082l39.6662 22.9835C92.3284 88.02 96 94.3564 96 101.636v31.407l-49.7893-28.849Z"
    clip-rule="evenodd" />
  <path fill-rule="evenodd"
    d="M46.2107 28.8216c-6.0259 3.6015-9.462 9.1399-10.2107 15.986V88.193c.7496-6.8507 4.1893-12.3918 10.2233-15.9931l39.6662-22.9622C92.3284 45.1074 96 38.7773 96 31.5044V0L46.2107 28.8216ZM32.0025 40.4104c-.1051-7.0189-3.1817-12.7628-8.7338-16.8328L0 10.0785v57.9917c.349055 7.4907 3.61369 12.4081 9.75017 16.9283l.63033.4565 1.1079.7831.9075.6292.9733.665 1.039.7008 1.4876.9903 1.6044 1.0541 1.7212 1.1178 2.3159 1.4869 1.9841 1.2613 2.6445 1.6663 3.4143 2.131 2.4223 1.5004V40.4104Z"
    clip-rule="evenodd" />
</svg>